<?xml version="1.0" standalone="no"?>
<!DOCTYPE svg PUBLIC "-//W3C//DTD SVG 20010904//EN"
 "http://www.w3.org/TR/2001/REC-SVG-20010904/DTD/svg10.dtd">
<svg version="1.0" xmlns="http://www.w3.org/2000/svg"
 width="700.000000pt" height="700.000000pt" viewBox="0 0 700.000000 700.000000"
 preserveAspectRatio="xMidYMid meet">
<metadata>
Created by potrace 1.14, written by Peter Selinger 2001-2017
</metadata>
<g transform="translate(0.000000,700.000000) scale(0.100000,-0.100000)"
fill="#000000" stroke="none">
<path d="M3350 6436 c-30 -12 -572 -245 -685 -296 -22 -9 -69 -30 -105 -45
-36 -15 -83 -35 -105 -45 -22 -10 -125 -55 -230 -100 -104 -45 -203 -88 -220
-95 -16 -7 -100 -44 -185 -80 -85 -37 -173 -75 -195 -85 -22 -10 -121 -53
-220 -95 -217 -93 -249 -109 -298 -147 -47 -38 -97 -109 -108 -157 -5 -20 -9
-784 -9 -1698 0 -1658 0 -1662 21 -1717 27 -75 98 -150 196 -209 73 -44 235
-110 300 -122 15 -2 55 -10 88 -16 96 -18 104 -19 230 -23 112 -3 265 11 281
26 3 4 7 692 8 1530 l1 1523 27 74 c44 122 114 212 224 293 61 45 109 67 534
250 274 118 690 299 755 328 22 10 69 30 105 45 36 15 83 35 105 45 32 14 458
199 591 256 41 17 46 32 25 77 -22 48 -50 73 -92 83 -41 9 -65 7 -104 -11 -16
-7 -136 -59 -265 -115 -129 -56 -248 -108 -265 -115 -16 -8 -167 -73 -335
-145 -168 -73 -325 -141 -350 -152 -76 -33 -94 -40 -125 -54 -16 -7 -61 -26
-98 -43 -37 -17 -71 -31 -74 -31 -5 0 -59 -24 -221 -96 -29 -13 -55 -24 -58
-24 -5 0 -29 -11 -154 -67 -229 -104 -286 -118 -485 -117 -199 0 -351 34 -488
107 l-58 32 38 17 c60 27 134 60 364 158 117 50 238 103 267 116 29 13 55 24
57 24 2 0 28 11 57 24 29 13 143 63 253 110 110 48 209 91 220 96 40 18 582
253 640 277 l60 24 140 -59 140 -60 3 195 c2 180 1 199 -18 237 -36 73 -106
101 -180 72z"/>
<path d="M4759 5705 c-37 -13 -161 -67 -384 -165 -77 -34 -144 -63 -150 -64
-5 -2 -30 -12 -55 -23 -25 -11 -146 -64 -270 -117 -124 -53 -238 -103 -255
-111 -16 -7 -115 -50 -220 -95 -104 -46 -210 -92 -235 -103 -25 -11 -47 -21
-50 -21 -8 -2 -273 -116 -291 -126 -9 -4 -56 -25 -105 -45 -49 -20 -93 -41
-98 -46 -6 -5 -16 -9 -23 -9 -21 0 -124 -68 -156 -102 -33 -36 -62 -90 -72
-137 -9 -41 -9 -3301 -1 -3349 27 -146 189 -279 433 -356 46 -14 93 -27 105
-30 13 -2 34 -7 48 -10 96 -24 388 -30 490 -11 133 25 193 48 818 321 17 8 47
20 65 28 17 8 169 73 337 146 168 72 319 137 336 145 17 8 100 44 185 81 85
36 168 72 184 79 17 7 100 44 185 81 285 123 276 117 304 186 13 31 15 240 13
1695 l-2 1660 -28 36 c-32 42 -74 67 -112 67 -24 0 -82 -22 -197 -74 -29 -13
-165 -72 -303 -132 -137 -59 -272 -117 -300 -129 -27 -13 -178 -78 -335 -145
-254 -109 -447 -193 -505 -220 -11 -5 -67 -29 -125 -53 -58 -25 -123 -53 -145
-63 -22 -9 -58 -25 -80 -34 -22 -10 -56 -24 -75 -33 -177 -79 -264 -99 -425
-99 -179 0 -366 41 -503 111 -23 12 -42 25 -42 30 0 4 102 52 228 106 221 95
259 111 352 153 25 11 95 41 155 67 61 26 128 55 150 65 22 10 105 46 185 80
129 55 187 80 255 111 188 85 604 261 616 261 10 0 76 -26 147 -56 72 -31 133
-56 136 -56 3 0 6 87 6 193 0 180 -1 196 -22 237 -38 73 -99 100 -169 75z"/>
</g>
</svg>
